<?xml version="1.0" encoding="UTF-8" standalone="no"?>
<!DOCTYPE svg PUBLIC "-//W3C//DTD SVG 1.1//EN" "http://www.w3.org/Graphics/SVG/1.1/DTD/svg11.dtd">
<svg width="100%" height="100%" viewBox="0 0 1024 1024" version="1.1" xmlns="http://www.w3.org/2000/svg" xmlns:xlink="http://www.w3.org/1999/xlink" xml:space="preserve" xmlns:serif="http://www.serif.com/" style="fill-rule:evenodd;clip-rule:evenodd;stroke-linejoin:round;stroke-miterlimit:2;">
    <g transform="matrix(8.66797,0,0,8.66987,0.223918,-3.0947e-15)">
        <g transform="matrix(1,0,0,1,-3.00261,3.16173)">
            <g transform="matrix(3.16436,0,0,3.16436,48.3692,10.006)">
                <path d="M3,20L5,18C3.903,18 3,17.097 3,16L3,3.337C3,2.237 3.9,1.337 5,1.337L15,1.337C16.097,1.337 17,2.24 17,3.337L17,16C17,17.097 16.097,18 15,18L17,20L14,20L12,18L8,18L6,20L3,20ZM5,6.003L5,10.669L15,10.669L15,6.003L5,6.003ZM10.804,4.447C11.059,4.24 11.223,3.924 11.223,3.574C11.223,3.342 11.152,3.126 11.03,2.947C10.827,2.647 10.484,2.449 10.098,2.449C9.712,2.449 9.369,2.647 9.166,2.947C9.044,3.126 8.973,3.342 8.973,3.574C8.973,3.924 9.137,4.24 9.392,4.447C9.586,4.604 9.832,4.699 10.098,4.699C10.365,4.699 10.611,4.604 10.804,4.447ZM13.5,16C14.323,16 15,15.323 15,14.5C15,13.677 14.323,13 13.5,13C12.677,13 12,13.677 12,14.5C12,15.323 12.677,16 13.5,16ZM6.5,16C7.323,16 8,15.323 8,14.5C8,13.677 7.323,13 6.5,13C5.677,13 5,13.677 5,14.5C5,15.323 5.677,16 6.5,16Z" style="fill:white;"/>
            </g>
            <g transform="matrix(0.115367,0,0,0.115342,-0.0348701,-0.428538)">
                <path d="M222.851,388.341C233.425,385.51 244.538,384 256,384C326.645,384 384,441.355 384,512C384,531.738 379.523,550.439 371.529,567.142L640,835.613L579.613,896L311.142,627.529C294.439,635.523 275.738,640 256,640C185.355,640 128,582.645 128,512C128,500.538 129.51,489.425 132.341,478.851L233.718,580.228L324.228,489.718L222.851,388.341Z" style="fill:white;"/>
            </g>
        </g>
    </g>
</svg>
