<?xml version="1.0" encoding="UTF-8" standalone="no"?>
<!DOCTYPE svg PUBLIC "-//W3C//DTD SVG 1.1//EN" "http://www.w3.org/Graphics/SVG/1.1/DTD/svg11.dtd">
<svg width="100%" height="100%" viewBox="0 0 512 512" version="1.1" xmlns="http://www.w3.org/2000/svg" xmlns:xlink="http://www.w3.org/1999/xlink" xml:space="preserve" xmlns:serif="http://www.serif.com/" style="fill-rule:evenodd;clip-rule:evenodd;stroke-linejoin:round;stroke-miterlimit:2;">
    <g transform="matrix(25.6,0,0,25.6,0,0)">
        <path d="M13.6,13.47C12.659,14.456 11.353,15.015 9.99,15.015C7.253,15.015 5,12.763 5,10.025C5,10.017 5,10.008 5,10C5,7.257 7.257,5 10,5C11.082,5 12.135,5.351 13,6L13,5L15,5L15,11.5C15,12.323 15.677,13 16.5,13C17.323,13 18,12.323 18,11.5L18,10C17.997,5.613 14.387,2.006 10,2.006C5.611,2.006 2,5.617 2,10.006C2,14.394 5.611,18.006 10,18.006C11.243,18.006 12.469,17.716 13.58,17.16L14.48,18.95C13.089,19.647 11.555,20.01 10,20.01C4.514,20.01 0,15.495 0,10.01C0,4.524 4.514,0.01 10,0.01C15.482,0.01 19.995,4.518 20,10L19.82,10L19.99,10L19.99,11.5C19.99,11.503 19.99,11.507 19.99,11.51C19.99,13.43 18.41,15.01 16.49,15.01C15.329,15.01 14.24,14.432 13.59,13.47L13.6,13.47ZM10,13C11.646,13 13,11.646 13,10C13,8.354 11.646,7 10,7C8.354,7 7,8.354 7,10C7,11.646 8.354,13 10,13Z" style="fill-rule:nonzero;"/>
    </g>
</svg>
