<?xml version="1.0" encoding="UTF-8" standalone="no"?>
<!DOCTYPE svg PUBLIC "-//W3C//DTD SVG 1.1//EN" "http://www.w3.org/Graphics/SVG/1.1/DTD/svg11.dtd">
<svg width="100%" height="100%" viewBox="0 0 512 512" version="1.1" xmlns="http://www.w3.org/2000/svg" xmlns:xlink="http://www.w3.org/1999/xlink" xml:space="preserve" xmlns:serif="http://www.serif.com/" style="fill-rule:evenodd;clip-rule:evenodd;stroke-linejoin:round;stroke-miterlimit:2;">
    <g transform="matrix(25.6,0,0,25.6,0,0)">
        <path d="M14.66,15.66C13.16,17.162 11.122,18.006 9,18.006C4.611,18.006 1,14.395 1,10.006C1,5.618 4.611,2.006 9,2.006C13.386,2.006 16.997,5.614 17,10L15,10C15,9.998 15,9.996 15,9.995C15,6.703 12.292,3.995 9,3.995C5.708,3.995 3,6.703 3,9.995C3,13.286 5.708,15.995 9,15.995C10.589,15.995 12.115,15.363 13.24,14.24L14.66,15.66ZM12,10L20,10L16,14L12,10Z" style="fill-rule:nonzero;"/>
    </g>
</svg>
