<?xml version="1.0" encoding="UTF-8" standalone="no"?>
<!DOCTYPE svg PUBLIC "-//W3C//DTD SVG 1.1//EN" "http://www.w3.org/Graphics/SVG/1.1/DTD/svg11.dtd">
<svg width="100%" height="100%" viewBox="0 0 1024 1024" version="1.1" xmlns="http://www.w3.org/2000/svg" xmlns:xlink="http://www.w3.org/1999/xlink" xml:space="preserve" xmlns:serif="http://www.serif.com/" style="fill-rule:evenodd;clip-rule:evenodd;stroke-linejoin:round;stroke-miterlimit:2;">
    <g transform="matrix(8.66797,0,0,8.66987,0.162187,0.870007)">
        <g id="Personen" transform="matrix(1.06299,0,0,1.06299,-3.54989,-3.81173)">
            <path d="M58.89,54.88C67.848,54.88 76.39,56.547 84.306,59.422L79.723,84.047L74.515,84.047L71.39,100.714L46.39,100.714L43.265,84.047L38.056,84.047L33.473,59.422C41.617,56.445 50.218,54.908 58.89,54.88ZM58.89,50.714C49.747,50.714 42.223,43.19 42.223,34.047C42.223,24.904 49.747,17.38 58.89,17.38C68.033,17.38 75.556,24.904 75.556,34.047C75.556,43.19 68.033,50.714 58.89,50.714Z" style="fill:white;fill-rule:nonzero;"/>
        </g>
    </g>
</svg>
